<svg xmlns="http://www.w3.org/2000/svg" viewBox="0 0 24 24" fill="currentColor">
    <path d="M19 0h-14c-2.761 0-5 2.239-5 5v14c0 2.761 2.239 5 5 5h14c2.761 0 5-2.239 5-5v-14c0-2.761-2.239-5-5-5zm-11 19h-3v-10h3v10zm-1.5-11.268c-.966 0-1.75-.784-1.75-1.75s.784-1.75 1.75-1.75 1.75.784 1.75 1.75-.784 1.75-1.75 1.75zm13.5 11.268h-3v-5.6c0-1.337-.026-3.065-1.865-3.065-1.865 0-2.152 1.454-2.152 2.957v5.708h-3v-10h2.881v1.367h.041c.401-.759 1.381-1.559 2.84-1.559 3.038 0 3.6 2.004 3.6 4.606v5.586z"/>
</svg>
