<svg xmlns="http://www.w3.org/2000/svg" viewBox="0 0 24 24" fill="currentColor">
    <path d="M12 0c-6.627 0-12 5.373-12 12s5.373 12 12 12 12-5.373 12-12-5.373-12-12-12zm5.537 7.484c-.061-.029-.133-.034-.202-.016l-11.664 3.287c-.248.069-.442.258-.525.505s-.036.515.146.697c.183.183.453.261.718.205l3.062-.652 7.686-4.898c.105-.067.198-.031.168.086l-6.14 6.598c-.002.002-.004.005-.006.007l-2.773 2.922c-.114.12-.14.302-.065.451.075.149.233.228.393.191l4.333-1.014 3.05 1.939c.159.101.362.11.532.025s.283-.253.304-.446l1.161-9.038c.019-.145-.051-.288-.173-.347z"/>
</svg>
